Coordinates
version=1
nRows=10
nColumns=40
inDegrees=yes
endheader
time	pelvis_tilt	pelvis_list	pelvis_rotation	pelvis_tx	pelvis_ty	pelvis_tz	hip_flexion_r	hip_adduction_r	hip_rotation_r	knee_angle_r	knee_angle_r_beta	ankle_angle_r	subtalar_angle_r	mtp_angle_r	hip_flexion_l	hip_adduction_l	hip_rotation_l	knee_angle_l	knee_angle_l_beta	ankle_angle_l	subtalar_angle_l	mtp_angle_l	lumbar_extension	lumbar_bending	lumbar_rotation	arm_flex_r	arm_add_r	arm_rot_r	elbow_flex_r	pro_sup_r	wrist_flex_r	wrist_dev_r	arm_flex_l	arm_add_l	arm_rot_l	elbow_flex_l	pro_sup_l	wrist_flex_l	wrist_dev_l
1760625434.07900000	     10.69320939	     -1.63168347	      3.05535714	     -0.05465947	      0.96738147	     -0.03012302	     80.00000000	     -7.00000000	      0.00000000	     80.00000000	      1.39626340	      0.00000000	      0.00000000	      0.00000000	     80.00000000	     -7.00000000	      0.00000000	     80.00000000	      1.39626340	      0.00000000	      0.00000000	      0.00000000	    -11.44653303	      1.51069095	      6.45722524	      5.92191007	    -27.87214814	    -12.91621592	     57.79336641	    139.21912564	    -35.31189855	     19.26618207	      7.36209929	     -8.84272871	     15.41296460	    100.68576801	    125.76830896	    -18.12179320	     28.35132905
1760625434.11199999	     12.05049953	     -1.62166077	      3.37857681	     -0.06391291	      0.97337764	     -0.03250426	     80.00000000	     -7.00000000	      0.00000000	     80.00000000	      1.39626340	      0.00000000	      0.00000000	      0.00000000	     80.00000000	     -7.00000000	      0.00000000	     80.00000000	      1.39626340	      0.00000000	      0.00000000	      0.00000000	    -13.37890272	      1.65461083	      6.24016922	      9.32665789	    -31.46253352	     -5.29145822	     46.31094615	    128.21499387	    -41.33068746	     11.61285907	      7.66002090	     -9.10260810	     16.82774211	     99.97212564	    125.72273360	    -18.89660474	     29.88254287
1760625434.14599991	     13.12741089	     -1.36668953	      3.76399247	     -0.07194897	      0.97839653	     -0.03304083	     80.00000000	     -7.00000000	      0.00000000	     80.00000000	      1.39626340	      0.00000000	      0.00000000	      0.00000000	     80.00000000	     -7.00000000	      0.00000000	     80.00000000	      1.39626340	      0.00000000	      0.00000000	      0.00000000	    -14.40213541	      1.53999447	      5.88236530	     11.30533334	    -32.37620040	      2.10006670	     37.96723215	    119.81140532	    -43.39055966	      6.67085778	      6.72958936	     -9.67672724	     17.90755944	     98.26017850	    126.04656819	    -18.51358922	     31.47178106
1760625434.17899990	     12.81763480	     -1.20223303	      3.83100497	     -0.07109457	      0.98036801	     -0.03145024	     80.00000000	     -7.00000000	      0.00000000	     80.00000000	      1.39626340	      0.00000000	      0.00000000	      0.00000000	     80.00000000	     -7.00000000	      0.00000000	     80.00000000	      1.39626340	      0.00000000	      0.00000000	      0.00000000	    -14.11167237	      1.38974790	      5.85245757	     12.27173928	    -31.17540921	      9.47153055	     30.58327927	    114.38668526	    -41.06746279	      4.66919543	      5.50730337	    -10.45888462	     18.73456310	     95.08552632	    125.85022596	    -15.12038626	     35.00000010
1760625434.21300006	     12.55954150	     -1.01007880	      3.87043751	     -0.06792506	      0.97925678	     -0.02764984	     80.00000000	     -7.00000000	      0.00000000	     80.00000000	      1.39626340	      0.00000000	      0.00000000	      0.00000000	     80.00000000	     -7.00000000	      0.00000000	     80.00000000	      1.39626340	      0.00000000	      0.00000000	      0.00000000	    -13.76753607	      1.23304075	      5.86995641	     10.97260529	    -29.46266240	     11.43649157	     28.98172650	    116.25181408	    -33.93564336	      7.39596781	      4.78277490	    -10.94630087	     19.14758141	     87.75763293	    123.59838328	    -11.86018567	     34.96748711
1760625434.24600005	     11.51008855	     -0.89303297	      3.89979441	     -0.06149577	      0.97177279	     -0.02190135	     80.00000000	     -7.00000000	      0.00000000	     80.00000000	      1.39626340	      0.00000000	      0.00000000	      0.00000000	     80.00000000	     -7.00000000	      0.00000000	     80.00000000	      1.39626340	      0.00000000	      0.00000000	      0.00000000	    -12.54656673	      1.17212916	      5.90919877	      7.62355266	    -27.28956591	      9.70852580	     32.84722493	    122.87763258	    -20.02214643	     14.11984422	      4.96314385	    -11.06462784	     18.92557625	     74.31754493	    121.71643832	     -6.14726361	     31.75186164
1760625434.27999997	     10.80266088	     -0.91122338	      3.93347287	     -0.05540682	      0.96419396	     -0.01680042	     80.00000000	     -7.00000000	      0.00000000	     80.00000000	      1.39626340	      0.00000000	      0.00000000	      0.00000000	     80.00000000	     -7.00000000	      0.00000000	     80.00000000	      1.39626340	      0.00000000	      0.00000000	      0.00000000	    -11.65113212	      1.18755794	      5.88843991	      4.63110516	    -24.63346948	     10.57198798	     35.48902218	    127.97889976	     -4.74582250	     17.41690098	      5.80272660	    -11.50899386	     19.64765675	     52.05082155	    125.79639334	     -3.55345767	     19.13690036
1760625434.31299996	      9.78401676	     -1.66697516	      3.30455986	     -0.04796339	      0.95448130	     -0.01750271	     80.00000000	     -7.00000000	      0.00000000	     80.00000000	      1.39626340	      0.00000000	      0.00000000	      0.00000000	     80.00000000	     -7.00000000	      0.00000000	     80.00000000	      1.39626340	      0.00000000	      0.00000000	      0.00000000	    -11.35614085	      1.82172644	      6.40816994	      6.71539863	    -25.09021861	     18.39956751	     27.77924551	    125.93070748	    -18.60784035	     12.24483981	      5.06928288	    -11.55395994	     22.78202346	     46.99005257	    123.28566396	    -11.68996877	     10.83765588
1760625434.34699988	      8.71669059	     -2.12089689	      2.65638847	     -0.04175480	      0.94884753	     -0.01639039	     80.00000000	     -7.00000000	      0.00000000	     80.00000000	      1.39626340	      0.00000000	      0.00000000	      0.00000000	     80.00000000	     -7.00000000	      0.00000000	     80.00000000	      1.39626340	      0.00000000	      0.00000000	      0.00000000	    -10.70362653	      2.06218771	      7.31286538	      7.73207106	    -24.98838229	     21.25117749	     26.08021505	    121.27349546	    -21.57064245	     10.33764686	      5.88733320	    -11.53871034	     24.91626042	     48.25735502	    119.90545699	    -11.66779945	     11.57472429
1760625434.38000011	      9.34008656	     -2.26935844	      2.47325023	     -0.04279639	      0.94977612	     -0.01643759	     80.00000000	     -7.00000000	      0.00000000	     80.00000000	      1.39626340	      0.00000000	      0.00000000	      0.00000000	     80.00000000	     -7.00000000	      0.00000000	     80.00000000	      1.39626340	      0.00000000	      0.00000000	      0.00000000	    -12.00920446	      2.24427119	      7.95732439	      9.06686272	    -26.48153300	     19.13365456	     26.57545259	    117.44349820	    -29.15551678	      7.77986596	      7.84763749	    -11.57456975	     22.90044124	     52.40835456	    117.51650652	    -13.41454284	      8.66923769
